<svg xmlns="http://www.w3.org/2000/svg" xml:space="preserve" fill-rule="evenodd" stroke-linejoin="round" stroke-miterlimit="2" clip-rule="evenodd" viewBox="0 0 24 24"><path fill="none" d="M0 0h24v24H0z"/><path d="M7.665 9.183v5.634a.683.683 0 0 1-.683.683H1.348a.683.683 0 0 1-.683-.683V9.183c0-.377.306-.683.683-.683h5.634c.377 0 .683.306.683.683Zm7.835 0v5.634a.683.683 0 0 1-.683.683H9.183a.683.683 0 0 1-.683-.683V9.183c0-.377.306-.683.683-.683h5.634c.377 0 .683.306.683.683Zm7.835 0v5.634a.683.683 0 0 1-.683.683h-5.634a.683.683 0 0 1-.683-.683V9.183c0-.377.306-.683.683-.683h5.634c.377 0 .683.306.683.683Zm-15.67 7.709v5.634a.683.683 0 0 1-.683.683H1.348a.683.683 0 0 1-.683-.683v-5.634c0-.377.306-.683.683-.683h5.634c.377 0 .683.306.683.683Zm7.835 0v5.634a.683.683 0 0 1-.683.683H9.183a.683.683 0 0 1-.683-.683v-5.634c0-.377.306-.683.683-.683h5.634c.377 0 .683.306.683.683Zm7.835 0v5.634a.683.683 0 0 1-.683.683h-5.634a.683.683 0 0 1-.683-.683v-5.634c0-.377.306-.683.683-.683h5.634c.377 0 .683.306.683.683ZM7.665 1.475v5.634a.683.683 0 0 1-.683.683H1.348a.683.683 0 0 1-.683-.683V1.475c0-.377.306-.683.683-.683h5.634c.377 0 .683.306.683.683Zm7.835 0v5.634a.683.683 0 0 1-.683.683H9.183a.683.683 0 0 1-.683-.683V1.475c0-.377.306-.683.683-.683h5.634c.377 0 .683.306.683.683Zm7.835 0v5.634a.683.683 0 0 1-.683.683h-5.634a.683.683 0 0 1-.683-.683V1.475c0-.377.306-.683.683-.683h5.634c.377 0 .683.306.683.683Z"/></svg>