<svg xmlns="http://www.w3.org/2000/svg" xml:space="preserve" fill-rule="evenodd" stroke-linejoin="round" stroke-miterlimit="2" clip-rule="evenodd" viewBox="0 0 24 24"><path d="M7.415 9.384v5.231a.634.634 0 0 1-.634.635H1.548a.638.638 0 0 1-.634-.635v-5.23c0-.35.285-.635.634-.635h5.233c.35 0 .634.285.634.634Zm7.835 0v5.231a.634.634 0 0 1-.634.635H9.384a.638.638 0 0 1-.634-.635v-5.23c0-.35.284-.635.634-.635h5.232c.35 0 .634.285.634.634Zm7.836 0-.001 5.231a.634.634 0 0 1-.634.635H17.22a.638.638 0 0 1-.634-.635v-5.23c0-.35.285-.635.634-.635h5.232c.35 0 .634.285.634.634ZM7.415 17.093v5.231c0 .35-.284.635-.634.635H1.548a.638.638 0 0 1-.634-.635v-5.23c0-.35.285-.636.634-.636h5.233c.35 0 .634.285.634.635Zm7.835 0v5.231c0 .35-.284.635-.634.635H9.384a.638.638 0 0 1-.634-.635v-5.23c0-.35.284-.636.634-.636h5.232c.35 0 .634.285.634.635Zm7.836 0-.001 5.231c0 .35-.284.635-.634.635H17.22a.638.638 0 0 1-.634-.635v-5.23c0-.35.285-.636.634-.636h5.232c.35 0 .634.285.634.635ZM7.415 1.676v5.23a.635.635 0 0 1-.634.636H1.548a.638.638 0 0 1-.634-.635V1.676c0-.35.285-.635.634-.635h5.233c.35 0 .634.285.634.635Zm7.835 0v5.23a.635.635 0 0 1-.634.636H9.384a.638.638 0 0 1-.634-.635V1.676c0-.35.284-.635.634-.635h5.232c.35 0 .634.285.634.635Zm7.836 0-.001 5.23a.635.635 0 0 1-.634.636H17.22a.638.638 0 0 1-.634-.635V1.676c0-.35.285-.635.634-.635h5.232c.35 0 .634.285.634.635Z"/></svg>